<svg width="13" height="13" viewBox="0 0 13 13" fill="none" xmlns="http://www.w3.org/2000/svg">
<path fill-rule="evenodd" clip-rule="evenodd" d="M11.8391 1.96027C11.1701 1.21184 10.2807 0.799988 9.33459 0.799988C8.38831 0.799988 7.59423 1.21184 6.925 1.96027L6.49998 2.63915L6.075 1.96027C5.40597 1.21184 4.61164 0.799988 3.66557 0.799988C2.71953 0.799988 1.82982 1.21184 1.16086 1.96027C-0.220288 3.50548 -0.220288 6.01962 1.16086 7.56423L6.10991 12.3207C6.19083 12.4115 6.29157 12.4672 6.39682 12.4886C6.43211 12.4964 6.46761 12.5 6.50317 12.5C6.64318 12.5 6.78341 12.4403 6.89004 12.3207L11.8391 7.56423C13.2203 6.01962 13.2203 3.50548 11.8391 1.96027Z" fill="#BCBFC2"/>
</svg>
