<svg width="0" height="0" class="hidden">
  <symbol xmlns="http://www.w3.org/2000/svg" viewBox="0 0 20 15" id="images">
    <path fill-rule="evenodd" clip-rule="evenodd" d="M3.5 3V1a1 1 0 011-1h14a1 1 0 011 1v10a1 1 0 01-1 1h-2v2a1 1 0 01-1 1h-14a1 1 0 01-1-1V4a1 1 0 011-1h2zm12 9h-11a1 1 0 01-1-1V4h-2v10h14v-2zM4.5 1v10h14V1h-14zm14 10h-14v-1l3-3 3 2 4-4 4 5v1zM10 6a1.5 1.5 0 110-3 1.5 1.5 0 010 3z"></path>
  </symbol>
	<symbol xmlns="http://www.w3.org/2000/svg" viewBox="0 0 15 14" id="comment">
    <path fill-rule="evenodd" clip-rule="evenodd" d="M11.135 11v3L8.36 11H2.25a1.5 1.5 0 01-1.5-1.5V2A1.5 1.5 0 012.25.5h10.5a1.5 1.5 0 011.5 1.5v7.5a1.5 1.5 0 01-1.5 1.5h-1.615z"></path>
  </symbol>
  <symbol xmlns="http://www.w3.org/2000/svg" viewBox="0 0 17 17" id="download">
    <path fill-rule="evenodd" clip-rule="evenodd" d="M16 12.426c0-.237.263-.426.5-.426s.5.189.5.426v4.134a.44.44 0 01-.432.44H.426A.435.435 0 010 16.56v-4.134C0 12.19.263 12 .5 12s.5.189.5.426V16h15v-3.574zM9 0v10h3l-3.5 4L5 10h3V0h1z" ></path>
  </symbol>
  <symbol xmlns="http://www.w3.org/2000/svg" viewBox="0 0 50 50" id="facebook">
    <path fill-rule="evenodd" clip-rule="evenodd" d="M25 50c13.807 0 25-11.193 25-25S38.807 0 25 0 0 11.193 0 25s11.193 25 25 25z" ></path>
    <path fill-rule="evenodd" clip-rule="evenodd" d="M29.623 16.004L27.225 16c-2.695 0-4.436 1.739-4.436 4.43v2.042h-2.412a.372.372 0 00-.377.367v2.96c0 .203.169.367.377.367h2.412v7.467c0 .203.168.367.377.367h3.146a.372.372 0 00.378-.367v-7.467h2.82a.372.372 0 00.377-.367v-2.96c0-.097-.04-.19-.11-.26a.383.383 0 00-.267-.107h-2.82v-1.731c0-.832.203-1.255 1.317-1.255h1.616a.372.372 0 00.377-.367V16.37a.372.372 0 00-.377-.367z" ></path>
  </symbol>
  <symbol xmlns="http://www.w3.org/2000/svg" viewBox="0 0 56 72" id="file">
    <path fill-rule="evenodd" clip-rule="evenodd" d="M40 0l16 16v52a4 4 0 01-4 4H4a4 4 0 01-4-4V4a4 4 0 014-4h36zm-4 20V4H4v64h48V20H36z" ></path>
  </symbol>
  <symbol xmlns="http://www.w3.org/2000/svg" viewBox="0 0 13 13" id="heart">
    <path fill-rule="evenodd" clip-rule="evenodd" d="M11.84 1.96C11.17 1.212 10.28.8 9.334.8c-.947 0-1.74.412-2.41 1.16l-.425.68-.425-.68C5.406 1.212 4.612.8 3.665.8c-.945 0-1.835.412-2.504 1.16-1.381 1.545-1.381 4.06 0 5.604l4.949 4.757a.523.523 0 00.393.179c.14 0 .28-.06.387-.18l4.95-4.756c1.38-1.544 1.38-4.059 0-5.604z" ></path>
  </symbol>
  <symbol xmlns="http://www.w3.org/2000/svg" viewBox="0 0 20 20" id="search">
    <path fill-rule="evenodd" clip-rule="evenodd" d="M18.435 17.395l-4.289-4.455a7.238 7.238 0 001.707-4.673C15.853 4.26 12.59 1 8.577 1S1.3 4.26 1.3 8.267c0 4.008 3.264 7.268 7.277 7.268a7.206 7.206 0 004.168-1.315l4.322 4.49c.181.187.424.29.684.29a.948.948 0 00.684-1.605zm-9.858-14.5a5.381 5.381 0 015.378 5.372 5.381 5.381 0 01-5.378 5.372 5.381 5.381 0 01-5.379-5.372 5.381 5.381 0 015.379-5.371z" ></path>
  </symbol>
  <symbol viewBox="0 0 0 0" id="sprite"></symbol>
  <symbol xmlns="http://www.w3.org/2000/svg" viewBox="0 0 50 50" id="twitter">
    <path fill-rule="evenodd" clip-rule="evenodd" d="M25 50c13.807 0 25-11.193 25-25S38.807 0 25 0 0 11.193 0 25s11.193 25 25 25z" ></path>
    <path fill-rule="evenodd" clip-rule="evenodd" d="M33.979 19.363a.088.088 0 00-.105-.024 7.158 7.158 0 01-1.687.516 3.777 3.777 0 001.317-1.867.09.09 0 00-.03-.098.089.089 0 00-.101-.008 7.177 7.177 0 01-2.245.875 3.745 3.745 0 00-2.7-1.157c-2.066 0-3.746 1.696-3.746 3.78 0 .253.024.503.072.745A10.298 10.298 0 0117.4 18.31a.09.09 0 00-.147.012 3.806 3.806 0 00-.506 1.9 3.79 3.79 0 001.41 2.958 3.556 3.556 0 01-1.307-.426.088.088 0 00-.088 0 .09.09 0 00-.045.077v.048a3.79 3.79 0 002.633 3.612 3.57 3.57 0 01-1.245-.018.09.09 0 00-.102.115 3.752 3.752 0 003.251 2.614 7.155 7.155 0 01-4.291 1.412c-.288 0-.578-.017-.862-.051a.09.09 0 00-.095.059.09.09 0 00.036.106 10.38 10.38 0 005.653 1.673c6.568 0 10.493-5.385 10.493-10.591 0-.145-.003-.29-.009-.433a7.51 7.51 0 001.807-1.905.091.091 0 00-.006-.108z" ></path>
  </symbol>
  <symbol xmlns="http://www.w3.org/2000/svg" viewBox="0 0 50 50" id="youtube">
    <path fill-rule="evenodd" clip-rule="evenodd" d="M25 50c13.807 0 25-11.193 25-25S38.807 0 25 0 0 11.193 0 25s11.193 25 25 25z" ></path>
    <path fill-rule="evenodd" clip-rule="evenodd" d="M25 17.8c-2.898 0-6.66.73-6.66.73l-.009.01A2.77 2.77 0 0016 21.277v7.445a2.778 2.778 0 002.338 2.743l.003.004s3.761.731 6.659.731c2.898 0 6.66-.73 6.66-.73A2.78 2.78 0 0034 28.722v-7.446a2.778 2.778 0 00-2.338-2.744C31.66 18.53 27.898 17.8 25 17.8zm-1.8 4.05L28.6 25l-5.4 3.15v-6.3z" ></path>
  </symbol>
  <symbol xmlns="http://www.w3.org/2000/svg" viewBox="0 0 14 18" id="bookmark">
    <path fill-rule="evenodd" clip-rule="evenodd" d="M2 0h10a2 2 0 012 2v16l-6.905-5L0 18V2a2 2 0 012-2z" ></path>
  </symbol>
</svg>